<?xml version="1.0" encoding="utf-8"?>
<!-- Generator: Adobe Illustrator 23.0.3, SVG Export Plug-In . SVG Version: 6.00 Build 0)  -->
<svg version="1.1" id="Layer_1" xmlns="http://www.w3.org/2000/svg" xmlns:xlink="http://www.w3.org/1999/xlink" x="0px" y="0px"
	 width="25px" height="25px" viewBox="0 0 25 25" style="enable-background:new 0 0 25 25;" xml:space="preserve">
<style type="text/css">
	.st0{fill:none;stroke:#000000;stroke-width:1.0498;stroke-linejoin:bevel;}
</style>
<g>
	<path class="st0" d="M18,6.8V5.6c0.1-1.5-1.1-2.7-2.5-2.8c-0.1,0-0.1,0-0.2,0c-0.5,0-1,0.2-1.5,0.5c-0.8-1.9-2.9-2.8-4.8-2
		c-0.9,0.4-1.6,1.1-2,2C6.6,3,6.1,2.8,5.6,2.8C4,2.9,2.7,4.2,2.8,5.8v1H18z"/>
	<path class="st0" d="M17.5,8.9h2.4c1.6,0,2.9,1.3,2.9,2.9l0,0l0,0c0,1.6-1.3,2.9-2.9,2.9H17"/>
	<polygon points="17.4,6.8 15.5,21.5 5.4,21.5 3.4,6.8 2.3,6.8 4.4,22.1 4.9,22.5 15.9,22.5 16.4,22.1 18.5,6.8 	"/>
	<polygon points="17.6,9.4 3.2,9.4 3.1,8.3 17.7,8.3 	"/>
	<polygon points="2.9,8.9 5.1,22 7.7,22.1 11.6,22.3 15.1,22 16.1,21.4 17.2,12.9 17.6,9.5 17.6,8.9 	"/>
</g>
</svg>
