<?xml version="1.0" encoding="utf-8"?>
<svg viewBox="0 0 30 25" width="30" height="25" style="enable-background:new 0 0 25 25;" xmlns="http://www.w3.org/2000/svg">
  <defs>
    <style type="text/css">
	.st0{fill:#D5D5D5;}
</style>
  </defs>
  <path class="st0" d="M 22.768 9.966 L 21.226 9.966 L 21.666 7.984 L 21.006 7.103 L 4.487 7.103 L 3.936 7.984 L 7.24 23.512 L 7.901 24.063 L 17.592 24.063 L 18.253 23.512 L 19.683 17.015 L 22.768 17.015 C 24.749 17.015 26.291 15.473 26.291 13.491 C 26.291 11.508 24.641 9.966 22.768 9.966 Z M 20.015 8.535 L 19.023 12.72 L 6.358 12.72 L 5.479 8.535 L 20.015 8.535 Z M 22.768 15.582 L 20.015 15.582 L 21.006 11.398 L 22.768 11.398 C 23.869 11.398 24.861 12.389 24.861 13.491 C 24.861 14.592 23.869 15.582 22.768 15.582 Z" style="fill: rgb(3, 0, 0);" transform="matrix(0.9999999999999999, 0, 0, 0.9999999999999999, -4.440892098500626e-16, 0)"/>
</svg>