<?xml version="1.0" encoding="utf-8"?>
<svg viewBox="-2.604755401611328 0 30 30" width="25" height="25" xmlns="http://www.w3.org/2000/svg">
  <g id="Page-1" stroke="none" stroke-width="1" fill="none" fill-rule="evenodd" transform="matrix(0.395363008906886, 0, 0, 0.395363008906886, -6.072315306549001, -3.466139129789755)">
    <g id="13" fill="#000000" transform="matrix(1, 0, 0, 1, 7.340187, 0.089514)">
      <path d="M67.3673043,47.3814589 C66.1028616,50.8999641 64.2897669,54.1399209 62.6365443,55.5436579 C61.4665714,56.4342796 60.252997,56.8924183 59.3264657,57.1159899 C58.8577498,57.2332734 58.46897,57.2882501 58.2037277,57.317571 L57.9057843,57.3432267 L57.8367486,57.3432267 L57.8258482,57.3432267 L57.8222148,57.3432267 L55.0244535,57.3432267 L59.7951815,32.8896155 L66.5352429,32.8896155 L66.560677,32.8859504 C66.6842146,32.8822853 67.43634,32.9299317 68.0649279,33.4283866 C68.391939,33.6849443 68.7153166,34.0477902 68.9841924,34.6708588 C69.2530681,35.2939274 69.4565417,36.1882142 69.4565417,37.4636723 C69.4638086,39.9999281 68.6571813,43.8519583 67.3673043,47.3814589 L67.3673043,47.3814589 Z M11.0087646,23.0487963 L11.2158716,23.0011498 L59.4391028,23.0011498 L59.6462098,23.0451312 L59.6498433,23.2577075 L52.9134154,57.7610492 L17.5598862,57.7610492 L10.9942307,23.2723679 L11.0087646,23.0487963 Z M71.3241382,33.6519583 C70.6810164,32.1346029 69.5982465,31.232986 68.6462809,30.8005031 C67.6906819,30.3533597 66.8804212,30.3167086 66.5570436,30.3167086 L66.4880079,30.3167086 L60.2965985,30.3167086 L61.6010093,23.642544 C61.8807854,22.1874955 60.914286,21 59.4391028,21 L11.2158716,21 C9.74795524,21 8.77055551,22.1911606 9.04669818,23.6462091 L17.7451924,69.3501258 C18.0177016,70.8088394 19.4492834,72 20.9208332,72 L49.4870662,72 C50.9586159,72 52.3938312,70.8088394 52.6772407,69.3537909 L54.5194031,59.9124686 L57.8258482,59.9124686 C57.9966207,59.9051383 61.1395603,59.9051383 64.2098309,57.5631333 L64.2352651,57.5448078 L64.2643327,57.5228171 C66.5461432,55.5363277 68.3665048,52.0398132 69.7581185,48.2684154 C71.1242981,44.4933525 71.9963276,40.4947179 71.999961,37.4636723 C72.0035945,35.9133309 71.752886,34.6561983 71.3241382,33.6519583 L71.3241382,33.6519583 Z" id="Fill-1"/>
    </g>
  </g>
</svg>